<mxfile host="app.diagrams.net" modified="2023-08-22T22:19:38.016Z" agent="Mozilla/5.0 (X11; Linux x86_64) AppleWebKit/537.36 (KHTML, like Gecko) Chrome/113.0.0.0 Safari/537.36" etag="YWn4dhUBLLnhEs6YqhE7" version="21.6.9" type="github">
  <diagram id="C5RBs43oDa-KdzZeNtuy" name="Page-1">
    <mxGraphModel dx="2189" dy="1915" grid="1" gridSize="10" guides="1" tooltips="1" connect="1" arrows="1" fold="1" page="1" pageScale="1" pageWidth="827" pageHeight="1169" math="0" shadow="0">
      <root>
        <mxCell id="WIyWlLk6GJQsqaUBKTNV-0" />
        <mxCell id="WIyWlLk6GJQsqaUBKTNV-1" parent="WIyWlLk6GJQsqaUBKTNV-0" />
        <mxCell id="R34Hh0Bk2r7J_QW1c8ME-7" value="" style="endArrow=block;html=1;rounded=0;strokeWidth=7;fontSize=28;endFill=1;exitX=1;exitY=0.5;exitDx=0;exitDy=0;entryX=0;entryY=0.5;entryDx=0;entryDy=0;" parent="WIyWlLk6GJQsqaUBKTNV-1" source="Wyzwz21-6LkhjTdQ_Vwk-0" target="Wyzwz21-6LkhjTdQ_Vwk-2" edge="1">
          <mxGeometry width="50" height="50" relative="1" as="geometry">
            <mxPoint x="270" y="-240.5" as="sourcePoint" />
            <mxPoint x="350" y="-240.5" as="targetPoint" />
          </mxGeometry>
        </mxCell>
        <mxCell id="Wyzwz21-6LkhjTdQ_Vwk-0" value="" style="rounded=1;whiteSpace=wrap;html=1;strokeWidth=3;" parent="WIyWlLk6GJQsqaUBKTNV-1" vertex="1">
          <mxGeometry y="-320" width="240" height="120" as="geometry" />
        </mxCell>
        <mxCell id="Wyzwz21-6LkhjTdQ_Vwk-1" value="Acquisition&lt;br style=&quot;font-size: 24px;&quot;&gt;and Sampling of DODF Editions&amp;nbsp;" style="text;html=1;strokeColor=none;fillColor=none;align=center;verticalAlign=middle;whiteSpace=wrap;rounded=0;strokeWidth=6;fontSize=24;fontStyle=1" parent="WIyWlLk6GJQsqaUBKTNV-1" vertex="1">
          <mxGeometry x="20" y="-275" width="200" height="30" as="geometry" />
        </mxCell>
        <mxCell id="Wyzwz21-6LkhjTdQ_Vwk-2" value="" style="rounded=1;whiteSpace=wrap;html=1;strokeWidth=3;" parent="WIyWlLk6GJQsqaUBKTNV-1" vertex="1">
          <mxGeometry x="320" y="-320" width="400" height="120" as="geometry" />
        </mxCell>
        <mxCell id="Wyzwz21-6LkhjTdQ_Vwk-3" value="Annotation Process" style="text;html=1;strokeColor=none;fillColor=none;align=center;verticalAlign=middle;whiteSpace=wrap;rounded=0;strokeWidth=6;fontSize=24;fontStyle=1" parent="WIyWlLk6GJQsqaUBKTNV-1" vertex="1">
          <mxGeometry x="390" y="-310" width="270" height="30" as="geometry" />
        </mxCell>
        <mxCell id="Wyzwz21-6LkhjTdQ_Vwk-4" value="" style="rounded=1;whiteSpace=wrap;html=1;strokeWidth=3;" parent="WIyWlLk6GJQsqaUBKTNV-1" vertex="1">
          <mxGeometry x="800" y="-320" width="240" height="120" as="geometry" />
        </mxCell>
        <mxCell id="Wyzwz21-6LkhjTdQ_Vwk-5" value="Corpus Evaluation" style="text;html=1;strokeColor=none;fillColor=none;align=center;verticalAlign=middle;whiteSpace=wrap;rounded=0;strokeWidth=6;fontSize=24;fontStyle=1" parent="WIyWlLk6GJQsqaUBKTNV-1" vertex="1">
          <mxGeometry x="827" y="-275" width="190" height="30" as="geometry" />
        </mxCell>
        <mxCell id="Wyzwz21-6LkhjTdQ_Vwk-16" value="" style="endArrow=block;html=1;rounded=0;strokeWidth=7;fontSize=28;endFill=1;" parent="WIyWlLk6GJQsqaUBKTNV-1" edge="1">
          <mxGeometry width="50" height="50" relative="1" as="geometry">
            <mxPoint x="720" y="-260.5" as="sourcePoint" />
            <mxPoint x="800" y="-260.5" as="targetPoint" />
          </mxGeometry>
        </mxCell>
        <mxCell id="Wyzwz21-6LkhjTdQ_Vwk-42" style="edgeStyle=orthogonalEdgeStyle;rounded=0;orthogonalLoop=1;jettySize=auto;html=1;entryX=0;entryY=0.5;entryDx=0;entryDy=0;fontSize=18;strokeWidth=3;" parent="WIyWlLk6GJQsqaUBKTNV-1" source="Wyzwz21-6LkhjTdQ_Vwk-38" target="Wyzwz21-6LkhjTdQ_Vwk-40" edge="1">
          <mxGeometry relative="1" as="geometry" />
        </mxCell>
        <mxCell id="Wyzwz21-6LkhjTdQ_Vwk-38" value="Text&lt;br style=&quot;font-size: 18px;&quot;&gt;Tagging" style="rounded=1;whiteSpace=wrap;html=1;strokeWidth=3;fontSize=18;fontStyle=1" parent="WIyWlLk6GJQsqaUBKTNV-1" vertex="1">
          <mxGeometry x="360" y="-275" width="120" height="60" as="geometry" />
        </mxCell>
        <mxCell id="Wyzwz21-6LkhjTdQ_Vwk-40" value="Tag&#39;s&lt;br style=&quot;font-size: 18px;&quot;&gt;Reviewing" style="rounded=1;whiteSpace=wrap;html=1;strokeWidth=3;fontSize=18;fontStyle=1" parent="WIyWlLk6GJQsqaUBKTNV-1" vertex="1">
          <mxGeometry x="560" y="-275" width="120" height="60" as="geometry" />
        </mxCell>
      </root>
    </mxGraphModel>
  </diagram>
</mxfile>
